# xmcd
#
# Track frame offsets:
#	150
#	34382
#	47822
#	61999
#	74472
#	88306
#	104337
#	116715
#	130613
#	143236
#	155651
#	179273
#	199512
#	228123
#	251350
#	285667
#	299198
#	323014
#
# Disc length: 4469 seconds
#
# Revision: 0
# Processed by: cddbd v1.4PL0 Copyright (c) Steve Scherf et al.
# Submitted via: dBpowerAMP V4.0
#
DISCID=12117312
DTITLE=Thelonious Monk - Blue Monk Vol 2
DYEAR=1991
DGENRE=Blues
TTITLE0=01.Blue Monk
TTITLE1=02.Just A Gigolo
TTITLE2=03.Bemsha Swing
TTITLE3=04.Reflections
TTITLE4=05.Little Rootie Tootie
TTITLE5=06.Sweet And Lovely
TTITLE6=07.Bye-ya
TTITLE7=08.Monk's Dream
TTITLE8=09.Trinkle Tinkle
TTITLE9=10.These Foolish Thinks Remind Me Of You
TTITLE10=11.We See
TTITLE11=12.Smoke Gets In Your Eyes
TTITLE12=13.Locomotive
TTITLE13=14.Hackensack
TTITLE14=15.Blue Monk
TTITLE15=16.Just A Gigolo
TTITLE16=17.Work
TTITLE17=18.Nutty
EXTD=
EXTT0=
EXTT1=
EXTT2=
EXTT3=
EXTT4=
EXTT5=
EXTT6=
EXTT7=
EXTT8=
EXTT9=
EXTT10=
EXTT11=
EXTT12=
EXTT13=
EXTT14=
EXTT15=
EXTT16=
EXTT17=
PLAYORDER=
